<?xml version="1.0" encoding="iso-8859-1"?>
<!-- Generator: Adobe Illustrator 19.2.1, SVG Export Plug-In . SVG Version: 6.00 Build 0)  -->
<svg version="1.1" id="Layer_1" xmlns="http://www.w3.org/2000/svg" xmlns:xlink="http://www.w3.org/1999/xlink" x="0px" y="0px"
	 viewBox="237.303 64.6 200 54.445" style="enable-background:new 237.303 64.6 200 54.445;" xml:space="preserve">
<path style="fill:#EA2348;" d="M247.501,96.843l-0.16-6.86c-0.011-0.478-0.408-0.855-0.885-0.843l-1.15,0.029
	c-0.604,0.015-1.197-0.266-1.508-0.783c-0.394-0.655-0.291-1.465,0.229-1.997l10.265-10.097c1.257-1.285,3.276-1.336,4.589-0.123
	l8.785,7.682l1.986,1.888c0.492,0.454,0.658,1.153,0.422,1.78c-0.236,0.627-0.822,1.043-1.491,1.06l-1.32,0.022
	c-0.479,0.008-0.861,0.406-0.848,0.885l0.267,10.513c0.018,0.7-0.596,1.269-1.322,1.161c-0.561-0.083-0.955-0.601-0.969-1.168
	l-0.287-11.318c-0.032-1.255,0.96-2.299,2.215-2.33l0.067-0.002c0.207-0.005,0.305-0.259,0.155-0.401l-0.439-0.418l-8.767-7.664
	c-0.403-0.373-1.02-0.357-1.404,0.036l-8.737,8.536c-0.147,0.149-0.037,0.401,0.173,0.395l-0.102,0.003
	c1.255-0.032,2.298,0.96,2.33,2.215l0.196,7.744c0.016,0.638-0.493,1.166-1.131,1.173l0,0
	C248.032,97.967,247.516,97.47,247.501,96.843z"/>
<path style="fill:#EA2348;" d="M249.875,105.722l14.489-0.368c0.633-0.016,1.132-0.542,1.116-1.174l0,0
	c-0.016-0.633-0.542-1.132-1.174-1.116l-14.413,0.365c-0.633,0.016-0.614,0.529-0.598,1.161
	C249.297,104.59,249.243,105.738,249.875,105.722z"/>
<path style="fill:#EA2348;" d="M249.66,99.279l0.059,2.329c-0.49,0.012-0.877,0.42-0.865,0.911c0.012,0.491,0.421,0.913,0.911,0.9
	l0.058,2.294c-1.775,0.045-3.252-1.359-3.297-3.136C246.482,100.801,247.885,99.324,249.66,99.279z"/>
<path style="fill:#EA2348;" d="M264.407,109.559l-14.489,0.368c-0.633,0.016-1.158-0.484-1.174-1.116l0,0
	c-0.016-0.633,0.484-1.158,1.116-1.174l14.413-0.365c0.633-0.016,0.64,0.497,0.656,1.129
	C264.928,108.4,265.04,109.543,264.407,109.559z"/>
<path style="fill:#EA2348;" d="M264.158,103.03l0.059,2.334c0.49-0.012,0.897,0.376,0.91,0.867c0.013,0.492-0.374,0.935-0.864,0.947
	l0.058,2.299c1.775-0.045,3.178-1.525,3.133-3.305C267.41,104.392,265.934,102.985,264.158,103.03z"/>
<path style="fill:#EA2348;" d="M265.319,111.83c-2.005,1.612-4.922,2.624-7.693,2.694c-2.771,0.07-5.736-0.792-7.82-2.301
	L265.319,111.83z"/>
<g>
	<path style="fill:#EA2348;" d="M266.654,99.982c0.016,0.633-0.483,1.158-1.116,1.175l-15.792,0.401
		c-0.652,0.017-1.19-0.513-1.175-1.174c0.015-0.621,0.559-1.102,1.181-1.118l15.728-0.399
		C266.112,98.85,266.638,99.349,266.654,99.982L266.654,99.982z"/>
</g>
<path style="fill:#4489C9;" d="M239.922,84.711c-0.092-3.642,0.987-7.04,2.895-9.836c0.344-0.505,0.302-1.177-0.113-1.626
	l-0.001-0.001c-0.57-0.616-1.566-0.543-2.039,0.15c-2.209,3.234-3.462,7.165-3.355,11.378c0.135,5.342,2.427,10.119,6.018,13.528
	c0.552,0.524,1.427,0.487,1.914-0.098l0.002-0.003c0.436-0.523,0.404-1.301-0.091-1.769
	C242.033,93.486,240.04,89.344,239.922,84.711z"/>
<path style="fill:#87C97F;" d="M273.364,83.863c0.116,4.593-1.633,8.798-4.555,11.896c-0.474,0.503-0.49,1.281-0.021,1.789
	l0.004,0.004c0.518,0.56,1.397,0.552,1.92-0.003c3.377-3.581,5.399-8.442,5.264-13.752c-0.106-4.181-1.534-8.017-3.872-11.122
	c-0.506-0.672-1.508-0.697-2.047-0.051l-0.002,0.002c-0.39,0.467-0.4,1.138-0.034,1.625C272.04,76.935,273.272,80.25,273.364,83.863
	z"/>
<path style="fill:#F05A25;" d="M244.457,71.071c0.469,0.507,1.244,0.552,1.784,0.122c2.746-2.186,6.198-3.531,9.977-3.627
	c3.807-0.097,7.347,1.089,10.212,3.161c0.561,0.406,1.337,0.323,1.781-0.209l0.003-0.004c0.489-0.586,0.366-1.457-0.253-1.905
	c-3.312-2.396-7.407-3.768-11.809-3.656c-4.371,0.111-8.363,1.667-11.539,4.195c-0.599,0.477-0.679,1.356-0.159,1.918
	L244.457,71.071z"/>
<path style="fill:#1E2728;" d="M292.556,70.723c0,4.711-7.141,4.711-7.141,0S292.556,66.011,292.556,70.723z M285.96,77.516v24.549
	h6.05V77.516H285.96z"/>
<path style="fill:#1E2728;" d="M320.875,67.4v34.665h-5.653l-0.397-3.372c-1.885,2.925-4.91,3.917-7.886,3.917
	c-7.191,0-12.596-4.761-12.596-12.794c0-8.431,5.307-12.795,12.448-12.795c2.579,0,6.596,1.389,8.034,3.918V67.4H320.875z
	 M300.393,89.816c0,4.265,3.075,7.191,6.943,7.191c3.818,0,7.092-2.777,7.092-7.191c0-4.265-3.274-7.141-7.092-7.141
	C303.468,82.675,300.393,85.402,300.393,89.816z"/>
<path style="fill:#1E2728;" d="M329.855,91.998c0.397,3.025,3.025,5.206,7.29,5.206c2.232,0,5.158-0.843,6.546-2.281l3.868,3.818
	c-2.579,2.678-6.794,3.967-10.513,3.967c-8.431,0-13.44-5.207-13.44-13.043c0-7.439,5.059-12.795,12.993-12.795
	c8.183,0,13.29,5.058,12.349,15.127L329.855,91.998L329.855,91.998z M343.146,86.989c-0.397-3.174-2.877-4.761-6.348-4.761
	c-3.274,0-5.952,1.587-6.844,4.761H343.146z"/>
<path style="fill:#1E2728;" d="M371.02,77.616h5.803v24.449h-5.703l-0.298-3.57c-1.389,2.876-5.207,4.264-7.935,4.314
	c-7.241,0.049-12.597-4.414-12.597-12.993c0-8.431,5.604-12.845,12.745-12.795c3.273,0,6.397,1.538,7.786,3.967L371.02,77.616z
	 M356.341,89.816c0,4.661,3.224,7.439,7.241,7.439c9.522,0,9.522-14.829,0-14.829C359.564,82.426,356.341,85.153,356.341,89.816z"/>
<g>
	<rect x="380.033" y="77.575" style="fill:#EA2348;" width="3.756" height="24.373"/>
	<path style="fill:#EA2348;" d="M379.339,69.582c0,1.705,1.319,2.597,2.622,2.597c1.302,0,2.621-0.892,2.621-2.597
		C384.582,66.172,379.339,66.173,379.339,69.582z"/>
	<path style="fill:#EA2348;" d="M399.184,76.458c-3.301,0.047-6.137,1.267-8.056,3.408v-2.192h-3.706v24.273h3.756v-13.52
		c0-4.744,3.332-8.22,8.046-8.263c5.044,0,7.936,2.849,7.936,7.817v13.967h3.756V87.931
		C410.916,80.961,406.315,76.458,399.184,76.458z"/>
	<path style="fill:#EA2348;" d="M431.497,99.409c3.463-2.145,5.707-6.13,5.707-10.337c0-3.397-0.896-6.062-2.811-8.337l2.433-2.839
		l-2.584-2.261l-2.433,2.838c-2.001-1.269-4.507-2.015-6.823-2.015c-7.278,0-12.168,5.069-12.168,12.614
		c0,7.253,5.118,12.516,12.168,12.516c4.163,0,8.611,1.754,8.611,6.677c0,6.242-6.591,6.727-8.611,6.727
		c-4.115,0-8.512-1.767-8.512-6.727v-0.663h-3.755v0.663c0,6.24,4.93,10.433,12.267,10.433c7.598,0,12.317-3.997,12.317-10.433
		C437.303,104.286,435.255,101.186,431.497,99.409z M424.986,80.213c5.171,0,8.512,3.477,8.512,8.859
		c0,4.749-3.898,8.761-8.512,8.761c-5.523,0-8.412-4.408-8.412-8.761C416.574,82.54,420.919,80.213,424.986,80.213z"/>
</g>
<rect x="412.719" y="106.625" style="fill:#EA2348;" width="3.758" height="1.127"/>
<g>
	<path style="fill:#1F2728;" d="M319.394,116.766c-1.456,0.154-3.299,0.154-4.955,0.154c-1.424,0-2.339-0.837-2.354-2.154v-6.473
		c0.015-1.316,0.93-2.151,2.354-2.151c1.657,0,3.5,0,4.955,0.154l-0.108,1.75h-4.104c-0.512,0-0.729,0.233-0.729,0.79v1.625h4.258
		v1.703h-4.258v2.06c0,0.573,0.218,0.805,0.729,0.805h4.104L319.394,116.766z"/>
	<path style="fill:#1F2728;" d="M336.667,106.405l-0.154,1.61c-0.898-0.03-2.215-0.047-3.345-0.047
		c-1.145,0-1.549,0.063-1.549,0.976c0,0.744,0.311,0.944,1.116,1.209l2.029,0.695c1.703,0.605,2.261,1.58,2.261,3.144
		c0,2.43-1.054,3.081-3.964,3.081c-0.683,0-2.029-0.047-3.671-0.402l0.14-1.703c1.982,0.047,2.848,0.076,3.531,0.076
		c1.238,0,1.579-0.169,1.579-1.037c0-0.759-0.294-0.944-1.006-1.177l-2.153-0.759c-1.625-0.587-2.215-1.549-2.215-3.127
		c0-2.447,1.13-2.958,3.886-2.958C334.206,105.986,335.476,106.064,336.667,106.405z"/>
	<path style="fill:#1F2728;" d="M350.789,106.189c0.573,0,0.866,0.309,0.883,0.881l0.419,9.803h-2.232l-0.355-8.841h-0.264
		l-1.61,6.612c-0.108,0.512-0.433,0.759-0.959,0.759h-1.549c-0.526,0-0.852-0.247-0.959-0.759l-1.627-6.612h-0.262l-0.311,8.841
		h-2.229l0.387-9.803c0.032-0.573,0.309-0.881,0.883-0.881h2.276c0.512,0,0.82,0.262,0.93,0.759l1.3,5.327
		c0.125,0.509,0.201,1.006,0.279,1.5h0.201c0.093-0.495,0.171-0.991,0.279-1.5l1.285-5.327c0.125-0.497,0.435-0.759,0.962-0.759
		H350.789z"/>
	<path style="fill:#1F2728;" d="M357.401,114.071l-0.773,2.802h-2.418l3.083-10.065c0.093-0.387,0.433-0.619,0.82-0.619h2.229
		c0.404,0,0.729,0.233,0.822,0.619l3.081,10.065h-2.401l-0.773-2.802H357.401z M359.662,108.977
		c-0.078-0.326-0.171-0.683-0.218-1.008h-0.419l-0.233,1.008l-0.898,3.267h2.665L359.662,108.977z"/>
	<path style="fill:#1F2728;" d="M372.514,116.873l-0.805-3.267c-0.203-0.683-0.512-0.898-1.147-0.898h-1.657v4.165h-2.322v-10.684
		c1.285-0.125,2.153-0.14,4.072-0.14c2.787,0,3.95,0.712,3.95,3.159c0,1.5-0.526,2.462-2.044,2.647v0.076
		c0.541,0.125,1.27,0.512,1.517,1.61l0.927,3.33h-2.491V116.873z M370.608,110.88c1.24,0,1.61-0.34,1.61-1.517
		c0-1.192-0.37-1.502-1.61-1.502l-1.703,0.015v3.005L370.608,110.88L370.608,110.88z"/>
	<path style="fill:#1F2728;" d="M382.439,108.108v8.765h-2.371v-8.765h-3.189v-1.919h8.748v1.919H382.439z"/>
	<path style="fill:#1F2728;" d="M395.446,116.766c-1.456,0.154-3.299,0.154-4.955,0.154c-1.424,0-2.339-0.837-2.354-2.154v-6.473
		c0.015-1.316,0.93-2.151,2.354-2.151c1.657,0,3.5,0,4.955,0.154l-0.108,1.75h-4.104c-0.512,0-0.729,0.233-0.729,0.79v1.625h4.258
		v1.703h-4.258v2.06c0,0.573,0.218,0.805,0.729,0.805h4.104L395.446,116.766z"/>
	<path style="fill:#1F2728;" d="M404.319,116.873l-0.805-3.267c-0.203-0.683-0.512-0.898-1.147-0.898h-1.657v4.165h-2.322v-10.684
		c1.285-0.125,2.154-0.14,4.072-0.14c2.787,0,3.949,0.712,3.949,3.159c0,1.5-0.526,2.462-2.044,2.647v0.076
		c0.541,0.125,1.27,0.512,1.517,1.61l0.927,3.33h-2.491V116.873z M402.413,110.88c1.24,0,1.61-0.34,1.61-1.517
		c0-1.192-0.37-1.502-1.61-1.502l-1.703,0.015v3.005L402.413,110.88L402.413,110.88z"/>
	<path style="fill:#1F2728;" d="M288.265,114.164c0,0.556,0.233,0.788,0.837,0.788h3.671l0.108,1.796
		c-1.424,0.156-3.005,0.171-4.522,0.171c-1.718,0-2.447-0.959-2.447-2.276v-8.455h2.354V114.164z"/>
	<path style="fill:#1F2728;" d="M295.417,116.873v-10.684h2.354v10.684H295.417z"/>
	<path style="fill:#1F2728;" d="M306.938,116.223c-0.093,0.387-0.419,0.651-0.837,0.651h-2.151c-0.419,0-0.744-0.264-0.837-0.651
		l-2.912-10.033h2.432l1.936,7.711c0.093,0.387,0.186,0.805,0.262,1.192h0.389c0.061-0.387,0.169-0.805,0.262-1.192l1.921-7.711
		h2.43L306.938,116.223z"/>
</g>
</svg>
