<?xml version="1.0" encoding="iso-8859-1"?>
<!-- Generator: Adobe Illustrator 16.0.0, SVG Export Plug-In . SVG Version: 6.00 Build 0)  -->
<!DOCTYPE svg PUBLIC "-//W3C//DTD SVG 1.1//EN" "http://www.w3.org/Graphics/SVG/1.1/DTD/svg11.dtd">
<svg version="1.1" id="Layer_1" xmlns="http://www.w3.org/2000/svg" xmlns:xlink="http://www.w3.org/1999/xlink" x="0px" y="0px"
	 width="12px" height="4px" viewBox="0 0 12 4" style="enable-background:new 0 0 12 4;" xml:space="preserve">
<g style="display:none;">
	<path style="display:inline;fill:#1E2728;" d="M3.443,0.893c0,0.235-0.357,0.235-0.357,0C3.086,0.657,3.443,0.657,3.443,0.893z
		 M3.113,1.232V2.46h0.303V1.232H3.113z"/>
	<path style="display:inline;fill:#1E2728;" d="M4.859,0.727V2.46H4.577l-0.02-0.168C4.462,2.438,4.311,2.487,4.163,2.487
		c-0.36,0-0.63-0.238-0.63-0.64c0-0.421,0.265-0.64,0.622-0.64c0.129,0,0.33,0.069,0.402,0.196V0.727H4.859z M3.835,1.848
		c0,0.214,0.154,0.359,0.347,0.359c0.191,0,0.355-0.139,0.355-0.359c0-0.213-0.164-0.357-0.355-0.357
		C3.989,1.491,3.835,1.627,3.835,1.848z"/>
	<path style="display:inline;fill:#1E2728;" d="M5.308,1.957c0.02,0.152,0.151,0.26,0.365,0.26c0.111,0,0.258-0.042,0.327-0.114
		l0.193,0.191c-0.129,0.134-0.34,0.198-0.525,0.198c-0.422,0-0.672-0.261-0.672-0.652c0-0.372,0.253-0.64,0.65-0.64
		c0.409,0,0.664,0.253,0.617,0.756H5.308L5.308,1.957z M5.973,1.706c-0.02-0.159-0.144-0.238-0.317-0.238
		c-0.164,0-0.297,0.079-0.342,0.238H5.973z"/>
	<path style="display:inline;fill:#1E2728;" d="M7.366,1.238h0.291V2.46H7.372L7.356,2.282C7.287,2.425,7.097,2.495,6.96,2.497
		C6.598,2.499,6.33,2.276,6.33,1.848c0-0.421,0.28-0.642,0.638-0.64c0.163,0,0.319,0.077,0.389,0.198L7.366,1.238z M6.632,1.848
		c0,0.233,0.162,0.372,0.363,0.372c0.476,0,0.476-0.742,0-0.742C6.794,1.478,6.632,1.614,6.632,1.848z"/>
	<g style="display:inline;">
		<rect x="7.817" y="1.235" style="fill:#E9254A;" width="0.188" height="1.219"/>
		<path style="fill:#E9254A;" d="M7.782,0.836c0,0.085,0.066,0.13,0.131,0.13c0.065,0,0.131-0.044,0.131-0.13
			C8.044,0.666,7.782,0.666,7.782,0.836z"/>
		<path style="fill:#E9254A;" d="M8.774,1.18C8.61,1.182,8.468,1.243,8.372,1.35V1.241H8.187v1.213h0.188V1.778
			c0-0.237,0.167-0.411,0.402-0.413c0.252,0,0.396,0.142,0.396,0.391v0.698h0.188V1.753C9.361,1.405,9.132,1.18,8.774,1.18z"/>
		<path style="fill:#E9254A;" d="M10.39,2.327c0.174-0.107,0.286-0.307,0.286-0.517c0-0.17-0.045-0.303-0.141-0.417l0.122-0.142
			l-0.129-0.113L10.405,1.28c-0.1-0.063-0.225-0.101-0.34-0.101c-0.364,0-0.609,0.253-0.609,0.631c0,0.362,0.256,0.626,0.609,0.626
			c0.207,0,0.43,0.088,0.43,0.334c0,0.312-0.329,0.336-0.43,0.336c-0.207,0-0.426-0.088-0.426-0.336V2.737H9.452v0.033
			c0,0.312,0.246,0.521,0.613,0.521c0.379,0,0.615-0.2,0.615-0.521C10.681,2.571,10.578,2.416,10.39,2.327z M10.065,1.367
			c0.258,0,0.425,0.174,0.425,0.443c0,0.237-0.194,0.438-0.425,0.438c-0.277,0-0.422-0.221-0.422-0.438
			C9.644,1.484,9.861,1.367,10.065,1.367z"/>
	</g>
	<rect x="9.452" y="2.688" style="display:inline;fill:#E9254A;" width="0.188" height="0.049"/>
	<g style="display:inline;">
		<path style="fill:#202728;" d="M3.286,2.759c-0.026,0-0.047,0.005-0.063,0.016C3.206,2.784,3.198,2.8,3.198,2.821
			S3.206,2.858,3.223,2.87c0.016,0.011,0.051,0.023,0.104,0.035C3.381,2.919,3.421,2.937,3.448,2.96
			c0.027,0.023,0.041,0.059,0.041,0.104S3.472,3.146,3.437,3.175C3.403,3.202,3.358,3.217,3.302,3.217
			c-0.082,0-0.154-0.028-0.217-0.085l0.055-0.066c0.053,0.047,0.107,0.069,0.164,0.069c0.028,0,0.051-0.007,0.067-0.019
			s0.025-0.028,0.025-0.049c0-0.02-0.008-0.035-0.023-0.047C3.358,3.01,3.331,2.999,3.292,2.991
			c-0.038-0.01-0.067-0.019-0.087-0.025c-0.02-0.008-0.038-0.019-0.053-0.031C3.122,2.911,3.106,2.876,3.106,2.827
			c0-0.048,0.018-0.085,0.052-0.111c0.035-0.025,0.079-0.039,0.13-0.039c0.033,0,0.066,0.006,0.099,0.017S3.449,2.72,3.473,2.739
			L3.426,2.806C3.411,2.792,3.39,2.78,3.363,2.771S3.311,2.759,3.286,2.759z"/>
		<path style="fill:#202728;" d="M3.605,3.211V2.69h0.088v0.225h0.259V2.69H4.04v0.521H3.952V2.997H3.693v0.214H3.605z"/>
		<path style="fill:#202728;" d="M4.629,3.139C4.576,3.19,4.511,3.216,4.434,3.216S4.291,3.19,4.238,3.139S4.159,3.023,4.159,2.946
			c0-0.076,0.026-0.141,0.079-0.191c0.053-0.053,0.118-0.078,0.195-0.078s0.143,0.025,0.195,0.078
			C4.682,2.806,4.708,2.87,4.708,2.946C4.708,3.023,4.681,3.087,4.629,3.139z M4.564,2.813C4.529,2.776,4.485,2.758,4.434,2.758
			S4.338,2.776,4.303,2.813C4.267,2.85,4.25,2.894,4.25,2.946S4.267,3.044,4.303,3.08c0.036,0.037,0.079,0.056,0.131,0.056
			S4.529,3.117,4.564,3.08C4.6,3.044,4.618,2.999,4.618,2.946S4.6,2.85,4.564,2.813z"/>
		<path style="fill:#202728;" d="M5.179,2.735c0.036,0.03,0.054,0.077,0.054,0.141c0,0.063-0.018,0.109-0.055,0.139
			c-0.037,0.028-0.094,0.043-0.17,0.043H4.915v0.153H4.827V2.69h0.179C5.085,2.69,5.143,2.705,5.179,2.735z M5.116,2.95
			c0.018-0.019,0.027-0.046,0.027-0.082S5.132,2.807,5.109,2.792C5.087,2.776,5.052,2.77,5.004,2.77H4.915v0.208h0.102
			C5.065,2.978,5.099,2.969,5.116,2.95z"/>
		<path style="fill:#202728;" d="M5.715,2.759c-0.025,0-0.047,0.005-0.063,0.016C5.635,2.784,5.627,2.8,5.627,2.821
			S5.635,2.858,5.652,2.87c0.016,0.011,0.051,0.023,0.105,0.035C5.81,2.919,5.851,2.937,5.878,2.96
			c0.026,0.023,0.04,0.059,0.04,0.104S5.901,3.146,5.866,3.175C5.832,3.202,5.787,3.217,5.731,3.217
			c-0.081,0-0.154-0.028-0.217-0.085L5.57,3.065c0.053,0.047,0.107,0.069,0.164,0.069c0.029,0,0.051-0.007,0.068-0.019
			c0.016-0.012,0.024-0.028,0.024-0.049c0-0.02-0.008-0.035-0.023-0.047C5.787,3.01,5.761,2.999,5.722,2.991
			c-0.038-0.01-0.067-0.019-0.087-0.025c-0.02-0.008-0.038-0.019-0.053-0.031C5.551,2.911,5.536,2.876,5.536,2.827
			c0-0.048,0.018-0.085,0.053-0.111C5.623,2.69,5.667,2.677,5.718,2.677c0.033,0,0.066,0.006,0.1,0.017S5.878,2.72,5.902,2.739
			L5.855,2.806C5.84,2.792,5.819,2.78,5.793,2.771S5.74,2.759,5.715,2.759z"/>
		<path style="fill:#202728;" d="M6.122,3.211H6.034V2.69h0.138l0.157,0.326L6.486,2.69h0.137v0.521H6.535V2.804L6.353,3.165H6.304
			L6.123,2.804L6.122,3.211L6.122,3.211z"/>
		<path style="fill:#202728;" d="M6.85,3.093L6.798,3.211H6.703L6.933,2.69h0.094l0.23,0.521H7.162L7.11,3.093H6.85z M7.074,3.011
			L6.979,2.796L6.886,3.011H7.074z"/>
		<path style="fill:#202728;" d="M7.753,2.858c0,0.086-0.038,0.141-0.113,0.163l0.137,0.189H7.665L7.54,3.036H7.425v0.175H7.337
			V2.69H7.53c0.08,0,0.137,0.013,0.171,0.039C7.735,2.757,7.753,2.8,7.753,2.858z M7.636,2.933c0.018-0.016,0.026-0.04,0.026-0.074
			c0-0.033-0.009-0.057-0.027-0.07C7.616,2.776,7.583,2.77,7.536,2.77H7.425v0.187h0.109C7.584,2.956,7.618,2.948,7.636,2.933z"/>
		<path style="fill:#202728;" d="M8.077,2.771v0.44H7.989v-0.44H7.831V2.69h0.404v0.08H8.077z"/>
		<path style="fill:#202728;" d="M8.704,2.69v0.082H8.427V2.91h0.249v0.079H8.427v0.139h0.286V3.21H8.339V2.69H8.704L8.704,2.69z"/>
		<path style="fill:#202728;" d="M9.249,2.858c0,0.086-0.037,0.141-0.111,0.163l0.136,0.189H9.161L9.037,3.036H8.922v0.175H8.834
			V2.69h0.193c0.079,0,0.137,0.013,0.171,0.039C9.232,2.757,9.249,2.8,9.249,2.858z M9.133,2.933
			c0.018-0.016,0.026-0.04,0.026-0.074c0-0.033-0.009-0.057-0.027-0.07C9.113,2.776,9.081,2.77,9.034,2.77H8.922v0.187h0.109
			C9.081,2.956,9.114,2.948,9.133,2.933z"/>
	</g>
	<g style="display:inline;">
		<g>
			<g>
				<path style="fill:#E9254A;" d="M2.593,2.446H1.256c-0.015,0-0.025-0.01-0.025-0.025c0-0.015,0.01-0.025,0.025-0.025h1.337
					c0.015,0,0.025,0.011,0.025,0.025C2.619,2.437,2.608,2.446,2.593,2.446z"/>
			</g>
			<g>
				<path style="fill:#E9254A;" d="M2.296,1.522c-0.02,0-0.04-0.015-0.04-0.04V1.176c0-0.181-0.146-0.328-0.328-0.328
					c-0.182,0-0.328,0.146-0.328,0.328v0.306c0,0.02-0.015,0.04-0.041,0.04c-0.025,0-0.04-0.015-0.04-0.04V1.176
					c0-0.222,0.181-0.403,0.403-0.403c0.222,0,0.403,0.181,0.403,0.403v0.306C2.331,1.502,2.316,1.522,2.296,1.522z"/>
			</g>
		</g>
	</g>
	<g style="display:inline;">
		<path style="fill:#E9254A;" d="M2.128,1.231H1.729c-0.021,0-0.038-0.017-0.038-0.038c0-0.021,0.017-0.038,0.038-0.038h0.399
			c0.021,0,0.038,0.017,0.038,0.038C2.166,1.214,2.149,1.231,2.128,1.231z"/>
	</g>
	<g style="display:inline;">
		<path style="fill:#E9254A;" d="M2.639,2.774H1.227c-0.093,0-0.169-0.075-0.169-0.168V1.325c0-0.093,0.076-0.169,0.169-0.169h0.128
			c0.021,0,0.038,0.017,0.038,0.038c0,0.021-0.017,0.038-0.038,0.038H1.227c-0.052,0-0.094,0.042-0.094,0.094v1.281
			c0,0.052,0.042,0.094,0.094,0.094h1.413c0.052,0,0.094-0.042,0.094-0.094V1.325c0-0.052-0.042-0.094-0.094-0.094H2.488
			c-0.021,0-0.038-0.017-0.038-0.038c0-0.021,0.017-0.038,0.038-0.038h0.151c0.093,0,0.168,0.076,0.168,0.169v1.281
			C2.808,2.699,2.732,2.774,2.639,2.774z"/>
	</g>
</g>
<g>
	<path style="fill:#1E2728;" d="M3.443,0.894c0,0.234-0.357,0.234-0.357,0C3.086,0.657,3.443,0.657,3.443,0.894z M3.113,1.233V2.46
		h0.303V1.233H3.113z"/>
	<path style="fill:#1E2728;" d="M4.859,0.728V2.46H4.577l-0.02-0.168C4.462,2.438,4.311,2.487,4.162,2.487
		c-0.359,0-0.629-0.238-0.629-0.64c0-0.421,0.265-0.64,0.622-0.64c0.129,0,0.33,0.069,0.402,0.195V0.728H4.859z M3.835,1.848
		c0,0.214,0.154,0.359,0.347,0.359c0.191,0,0.354-0.139,0.354-0.359c0-0.214-0.164-0.356-0.354-0.356
		C3.989,1.491,3.835,1.627,3.835,1.848z"/>
	<path style="fill:#1E2728;" d="M5.308,1.957C5.328,2.108,5.46,2.218,5.673,2.218c0.111,0,0.258-0.043,0.327-0.115l0.193,0.191
		c-0.129,0.134-0.34,0.198-0.526,0.198c-0.421,0-0.672-0.261-0.672-0.651c0-0.373,0.254-0.641,0.65-0.641
		c0.409,0,0.664,0.253,0.617,0.757H5.308L5.308,1.957z M5.973,1.706C5.952,1.548,5.829,1.468,5.655,1.468
		c-0.164,0-0.297,0.08-0.342,0.238H5.973z"/>
	<path style="fill:#1E2728;" d="M7.366,1.237h0.291V2.46H7.372L7.356,2.282C7.287,2.425,7.097,2.495,6.96,2.497
		C6.598,2.5,6.33,2.276,6.33,1.848c0-0.421,0.28-0.642,0.638-0.64c0.163,0,0.319,0.077,0.389,0.198L7.366,1.237z M6.632,1.848
		c0,0.233,0.162,0.372,0.363,0.372c0.476,0,0.476-0.742,0-0.742C6.794,1.478,6.632,1.614,6.632,1.848z"/>
	<g>
		<rect x="7.817" y="1.235" style="fill:#4389C8;" width="0.188" height="1.219"/>
		<path style="fill:#4389C8;" d="M7.782,0.836c0,0.085,0.066,0.13,0.131,0.13c0.065,0,0.131-0.045,0.131-0.13
			C8.044,0.665,7.782,0.665,7.782,0.836z"/>
		<path style="fill:#4389C8;" d="M8.774,1.18C8.609,1.183,8.468,1.243,8.372,1.351V1.241H8.187v1.213h0.188V1.778
			c0-0.237,0.167-0.411,0.402-0.413c0.252,0,0.396,0.142,0.396,0.391v0.698h0.188V1.753C9.361,1.405,9.132,1.18,8.774,1.18z"/>
		<path style="fill:#4389C8;" d="M10.39,2.327c0.174-0.107,0.286-0.307,0.286-0.517c0-0.17-0.045-0.304-0.141-0.417l0.122-0.142
			l-0.13-0.113L10.405,1.28c-0.1-0.063-0.225-0.101-0.34-0.101c-0.365,0-0.609,0.253-0.609,0.631c0,0.362,0.256,0.626,0.609,0.626
			c0.207,0,0.43,0.088,0.43,0.334c0,0.313-0.33,0.336-0.43,0.336c-0.207,0-0.426-0.088-0.426-0.336V2.737H9.451v0.033
			c0,0.312,0.247,0.521,0.614,0.521c0.379,0,0.615-0.2,0.615-0.521C10.681,2.571,10.578,2.416,10.39,2.327z M10.065,1.368
			c0.258,0,0.425,0.174,0.425,0.442c0,0.237-0.194,0.438-0.425,0.438c-0.277,0-0.422-0.221-0.422-0.438
			C9.644,1.483,9.861,1.368,10.065,1.368z"/>
	</g>
	<rect x="9.451" y="2.688" style="fill:#4389C8;" width="0.188" height="0.049"/>
	<g>
		<path style="fill:#202728;" d="M3.286,2.759c-0.026,0-0.047,0.005-0.063,0.016C3.206,2.784,3.198,2.8,3.198,2.821
			S3.206,2.858,3.223,2.87c0.016,0.011,0.051,0.023,0.104,0.036s0.094,0.03,0.121,0.054c0.027,0.023,0.041,0.059,0.041,0.104
			S3.471,3.146,3.437,3.175C3.403,3.202,3.358,3.217,3.302,3.217c-0.082,0-0.154-0.028-0.217-0.085l0.055-0.065
			c0.053,0.046,0.107,0.068,0.164,0.068c0.028,0,0.051-0.006,0.067-0.019c0.017-0.012,0.025-0.027,0.025-0.049
			c0-0.02-0.008-0.035-0.023-0.047C3.358,3.01,3.331,3,3.292,2.991c-0.038-0.01-0.067-0.018-0.087-0.025
			c-0.02-0.008-0.038-0.018-0.053-0.031C3.122,2.911,3.106,2.876,3.106,2.827c0-0.048,0.018-0.085,0.052-0.111
			c0.035-0.025,0.079-0.039,0.13-0.039c0.033,0,0.066,0.006,0.099,0.017C3.421,2.704,3.449,2.72,3.473,2.739L3.426,2.806
			C3.411,2.792,3.39,2.78,3.363,2.772C3.337,2.763,3.311,2.759,3.286,2.759z"/>
		<path style="fill:#202728;" d="M3.605,3.211V2.69h0.088v0.225h0.259V2.69H4.04v0.521H3.952V2.997H3.693v0.214H3.605z"/>
		<path style="fill:#202728;" d="M4.628,3.139C4.576,3.19,4.511,3.216,4.434,3.216c-0.078,0-0.143-0.025-0.195-0.077
			S4.159,3.023,4.159,2.946c0-0.076,0.026-0.141,0.079-0.191c0.053-0.052,0.118-0.078,0.195-0.078c0.077,0,0.143,0.026,0.195,0.078
			C4.681,2.806,4.708,2.87,4.708,2.946C4.708,3.023,4.681,3.087,4.628,3.139z M4.564,2.813c-0.035-0.037-0.079-0.056-0.13-0.056
			S4.338,2.776,4.303,2.813C4.267,2.85,4.25,2.894,4.25,2.946s0.018,0.098,0.053,0.135c0.036,0.036,0.079,0.055,0.131,0.055
			s0.095-0.019,0.13-0.055C4.6,3.044,4.617,2.999,4.617,2.946S4.6,2.85,4.564,2.813z"/>
		<path style="fill:#202728;" d="M5.179,2.735c0.036,0.03,0.055,0.077,0.055,0.141c0,0.063-0.02,0.109-0.056,0.139
			C5.141,3.044,5.084,3.058,5.007,3.058H4.915v0.153H4.827V2.69h0.179C5.085,2.69,5.143,2.705,5.179,2.735z M5.116,2.95
			c0.018-0.019,0.026-0.046,0.026-0.082c0-0.035-0.011-0.062-0.033-0.076S5.052,2.77,5.005,2.77h-0.09v0.209h0.102
			C5.065,2.979,5.099,2.969,5.116,2.95z"/>
		<path style="fill:#202728;" d="M5.715,2.759c-0.026,0-0.047,0.005-0.063,0.016C5.636,2.784,5.627,2.8,5.627,2.821
			S5.636,2.858,5.651,2.87c0.017,0.011,0.052,0.023,0.105,0.036c0.053,0.013,0.094,0.03,0.12,0.054
			c0.027,0.023,0.041,0.059,0.041,0.104S5.901,3.146,5.866,3.175C5.832,3.202,5.787,3.217,5.731,3.217
			c-0.082,0-0.154-0.028-0.217-0.085l0.055-0.065c0.053,0.046,0.107,0.068,0.164,0.068c0.029,0,0.051-0.006,0.068-0.019
			c0.016-0.012,0.024-0.027,0.024-0.049c0-0.02-0.008-0.035-0.023-0.047C5.787,3.01,5.761,3,5.722,2.991
			c-0.038-0.01-0.067-0.018-0.087-0.025C5.614,2.958,5.597,2.948,5.582,2.935C5.551,2.911,5.536,2.876,5.536,2.827
			c0-0.048,0.018-0.085,0.052-0.111c0.035-0.025,0.079-0.039,0.13-0.039c0.033,0,0.066,0.006,0.1,0.017S5.878,2.72,5.902,2.739
			L5.855,2.806C5.84,2.792,5.819,2.78,5.792,2.772C5.767,2.763,5.74,2.759,5.715,2.759z"/>
		<path style="fill:#202728;" d="M6.122,3.211H6.034V2.69h0.138l0.157,0.326L6.486,2.69h0.137v0.521H6.534V2.804L6.353,3.165H6.304
			L6.122,2.804V3.211L6.122,3.211z"/>
		<path style="fill:#202728;" d="M6.849,3.093L6.798,3.211H6.703L6.933,2.69h0.094l0.23,0.521H7.162L7.11,3.093H6.849z M7.074,3.011
			L6.979,2.796L6.886,3.011H7.074z"/>
		<path style="fill:#202728;" d="M7.753,2.858c0,0.086-0.038,0.141-0.113,0.163l0.137,0.189H7.665L7.54,3.036H7.425v0.175H7.337
			V2.69H7.53c0.08,0,0.137,0.013,0.171,0.039C7.735,2.757,7.753,2.8,7.753,2.858z M7.636,2.933c0.018-0.016,0.026-0.04,0.026-0.074
			c0-0.033-0.009-0.057-0.027-0.07C7.616,2.776,7.583,2.77,7.536,2.77H7.425v0.187h0.109C7.584,2.956,7.618,2.948,7.636,2.933z"/>
		<path style="fill:#202728;" d="M8.077,2.771v0.44H7.989v-0.44H7.831V2.69h0.403v0.08H8.077z"/>
		<path style="fill:#202728;" d="M8.704,2.69v0.082H8.427v0.139h0.249v0.078H8.427v0.139h0.286v0.083H8.338V2.69H8.704L8.704,2.69z"
			/>
		<path style="fill:#202728;" d="M9.249,2.858c0,0.086-0.037,0.141-0.111,0.163l0.136,0.189H9.161L9.037,3.036H8.922v0.175H8.834
			V2.69h0.193c0.079,0,0.137,0.013,0.171,0.039C9.232,2.757,9.249,2.8,9.249,2.858z M9.132,2.933
			c0.019-0.016,0.027-0.04,0.027-0.074c0-0.033-0.009-0.057-0.027-0.07C9.113,2.776,9.081,2.77,9.033,2.77H8.922v0.187h0.109
			C9.081,2.956,9.114,2.948,9.132,2.933z"/>
	</g>
	<g>
		<g>
			<g>
				<path style="fill:#4389C8;" d="M2.593,2.446H1.256c-0.015,0-0.025-0.01-0.025-0.025c0-0.015,0.01-0.025,0.025-0.025h1.337
					c0.015,0,0.025,0.011,0.025,0.025C2.619,2.437,2.608,2.446,2.593,2.446z"/>
			</g>
			<g>
				<path style="fill:#4389C8;" d="M2.296,1.522c-0.02,0-0.04-0.015-0.04-0.04V1.177c0-0.182-0.146-0.328-0.328-0.328
					c-0.182,0-0.328,0.146-0.328,0.328v0.306c0,0.021-0.015,0.04-0.041,0.04c-0.025,0-0.04-0.015-0.04-0.04V1.177
					c0-0.223,0.181-0.403,0.403-0.403c0.222,0,0.403,0.181,0.403,0.403v0.306C2.331,1.503,2.316,1.522,2.296,1.522z"/>
			</g>
		</g>
	</g>
	<g>
		<path style="fill:#4389C8;" d="M2.128,1.231H1.729c-0.021,0-0.038-0.017-0.038-0.037c0-0.021,0.017-0.038,0.038-0.038h0.399
			c0.021,0,0.038,0.017,0.038,0.038C2.166,1.215,2.149,1.231,2.128,1.231z"/>
	</g>
	<g>
		<path style="fill:#4389C8;" d="M2.639,2.775H1.227c-0.093,0-0.169-0.076-0.169-0.169V1.325c0-0.094,0.076-0.169,0.169-0.169h0.128
			c0.021,0,0.038,0.017,0.038,0.038c0,0.021-0.017,0.037-0.038,0.037H1.227c-0.052,0-0.094,0.042-0.094,0.094v1.281
			c0,0.052,0.042,0.094,0.094,0.094h1.413c0.051,0,0.094-0.042,0.094-0.094V1.325c0-0.052-0.042-0.094-0.094-0.094H2.488
			c-0.021,0-0.038-0.017-0.038-0.037c0-0.021,0.017-0.038,0.038-0.038h0.151c0.093,0,0.168,0.075,0.168,0.169v1.281
			C2.808,2.699,2.732,2.775,2.639,2.775z"/>
	</g>
</g>
</svg>
