<?xml version="1.0" encoding="utf-8"?>
<!-- Generator: Adobe Illustrator 16.0.0, SVG Export Plug-In . SVG Version: 6.00 Build 0)  -->
<!DOCTYPE svg PUBLIC "-//W3C//DTD SVG 1.1//EN" "http://www.w3.org/Graphics/SVG/1.1/DTD/svg11.dtd">
<svg version="1.1" id="Layer_1" xmlns="http://www.w3.org/2000/svg" xmlns:xlink="http://www.w3.org/1999/xlink" x="0px" y="0px"
	 width="30px" height="10px" viewBox="0 0 30 10" enable-background="new 0 0 30 10" xml:space="preserve">
<g>
	<path fill="#1E2728" d="M8.361,1.752c0,0.689-1.048,0.689-1.048,0C7.313,1.061,8.361,1.061,8.361,1.752z M7.394,2.749v3.603h0.888
		V2.749H7.394z"/>
	<path fill="#1E2728" d="M12.518,1.264v5.088h-0.829l-0.058-0.496c-0.277,0.428-0.722,0.574-1.157,0.574
		c-1.056,0-1.849-0.699-1.849-1.877c0-1.237,0.778-1.878,1.827-1.878c0.379,0,0.967,0.205,1.179,0.575V1.264H12.518z M9.511,4.553
		c0,0.626,0.451,1.055,1.02,1.055c0.561,0,1.041-0.406,1.041-1.055c0-0.626-0.48-1.049-1.041-1.049
		C9.963,3.505,9.511,3.905,9.511,4.553z"/>
	<path fill="#1E2728" d="M13.835,4.875c0.059,0.444,0.444,0.764,1.07,0.764c0.328,0,0.757-0.123,0.96-0.336l0.566,0.561
		c-0.377,0.393-0.996,0.582-1.541,0.582c-1.238,0-1.973-0.764-1.973-1.913c0-1.091,0.742-1.877,1.907-1.877
		c1.201,0,1.951,0.742,1.812,2.22H13.835L13.835,4.875z M15.785,4.138c-0.059-0.466-0.422-0.697-0.931-0.697
		c-0.481,0-0.874,0.231-1.005,0.697H15.785z"/>
	<path fill="#1E2728" d="M19.875,2.763h0.852v3.589h-0.836l-0.045-0.523c-0.203,0.422-0.764,0.625-1.162,0.633
		c-1.063,0.008-1.85-0.646-1.85-1.906c0-1.238,0.822-1.887,1.869-1.878c0.48,0,0.939,0.226,1.143,0.582L19.875,2.763z M17.721,4.553
		c0,0.683,0.475,1.092,1.064,1.092c1.396,0,1.396-2.177,0-2.177C18.195,3.47,17.721,3.869,17.721,4.553z"/>
	<g>
		<rect x="21.197" y="2.758" fill="#4388C7" width="0.551" height="3.574"/>
		<path fill="#4388C7" d="M21.096,1.584c0,0.252,0.193,0.382,0.387,0.382c0.189,0,0.383-0.13,0.383-0.382
			C21.865,1.083,21.096,1.084,21.096,1.584z"/>
		<path fill="#4388C7" d="M24.01,2.593c-0.486,0.007-0.902,0.187-1.182,0.5V2.771h-0.545v3.562h0.551V4.35
			c0-0.696,0.49-1.206,1.182-1.213c0.738,0,1.166,0.419,1.166,1.148v2.047h0.549V4.276C25.73,3.255,25.055,2.593,24.01,2.593z"/>
		<path fill="#4388C7" d="M28.752,5.959c0.508-0.311,0.836-0.896,0.836-1.515c0-0.498-0.131-0.889-0.412-1.223l0.357-0.417
			l-0.379-0.332l-0.357,0.416c-0.295-0.186-0.66-0.296-1-0.296c-1.068,0-1.787,0.743-1.787,1.852c0,1.063,0.752,1.835,1.787,1.835
			c0.609,0,1.262,0.26,1.262,0.98c0,0.916-0.967,0.988-1.262,0.988c-0.605,0-1.25-0.26-1.25-0.988V7.162h-0.551V7.26
			c0,0.916,0.725,1.531,1.801,1.531c1.113,0,1.809-0.588,1.809-1.531C29.604,6.676,29.303,6.221,28.752,5.959z M27.797,3.144
			c0.758,0,1.248,0.51,1.248,1.3c0,0.697-0.574,1.285-1.248,1.285c-0.813,0-1.236-0.646-1.236-1.285
			C26.561,3.485,27.197,3.144,27.797,3.144z"/>
	</g>
	<rect x="25.996" y="7.02" fill="#4388C7" width="0.551" height="0.143"/>
	<g>
		<path fill="#1F2728" d="M7.898,7.227c-0.076,0-0.137,0.016-0.186,0.045C7.666,7.303,7.642,7.348,7.642,7.41
			S7.666,7.52,7.714,7.553S7.863,7.621,8.021,7.66c0.155,0.037,0.274,0.09,0.354,0.158s0.119,0.17,0.119,0.305
			c0,0.133-0.05,0.24-0.151,0.322C8.243,8.529,8.111,8.57,7.948,8.57c-0.239,0-0.451-0.082-0.636-0.246l0.16-0.195
			c0.155,0.135,0.316,0.203,0.482,0.203c0.082,0,0.148-0.02,0.197-0.055s0.073-0.082,0.073-0.143c0-0.059-0.023-0.105-0.068-0.139
			C8.111,7.965,8.031,7.936,7.92,7.908C7.807,7.881,7.722,7.855,7.663,7.834s-0.11-0.053-0.155-0.088
			C7.417,7.678,7.372,7.574,7.372,7.432c0-0.141,0.051-0.252,0.153-0.328s0.23-0.115,0.382-0.115c0.098,0,0.194,0.018,0.29,0.047
			c0.098,0.033,0.182,0.076,0.251,0.137L8.311,7.365C8.266,7.326,8.205,7.291,8.126,7.264C8.05,7.238,7.975,7.227,7.898,7.227z"/>
		<path fill="#1F2728" d="M8.837,8.553V7.025h0.259v0.662h0.759V7.025h0.259v1.527H9.854V7.928H9.096v0.625H8.837L8.837,8.553z"/>
		<path fill="#1F2728" d="M11.841,8.342c-0.155,0.152-0.346,0.227-0.572,0.227c-0.228,0-0.419-0.074-0.573-0.227
			c-0.155-0.15-0.231-0.338-0.231-0.563c0-0.227,0.076-0.414,0.231-0.566c0.154-0.15,0.346-0.225,0.573-0.225
			s0.419,0.074,0.572,0.225c0.155,0.152,0.231,0.34,0.231,0.566C12.072,8.004,11.996,8.191,11.841,8.342z M11.652,7.385
			c-0.104-0.107-0.233-0.162-0.384-0.162c-0.152,0-0.279,0.055-0.384,0.162c-0.104,0.109-0.157,0.24-0.157,0.395
			s0.053,0.283,0.157,0.393c0.104,0.107,0.232,0.162,0.384,0.162c0.15,0,0.28-0.055,0.384-0.162
			c0.104-0.109,0.156-0.238,0.156-0.393S11.756,7.494,11.652,7.385z"/>
		<path fill="#1F2728" d="M13.455,7.158c0.105,0.088,0.159,0.225,0.159,0.41s-0.054,0.322-0.162,0.406
			c-0.108,0.086-0.275,0.129-0.5,0.129h-0.271v0.447h-0.259V7.025h0.525C13.18,7.025,13.349,7.068,13.455,7.158z M13.272,7.789
			c0.052-0.055,0.078-0.135,0.078-0.24s-0.032-0.182-0.099-0.225c-0.065-0.043-0.168-0.064-0.309-0.064h-0.262v0.611h0.299
			C13.123,7.871,13.221,7.846,13.272,7.789z"/>
		<path fill="#1F2728" d="M15.028,7.227c-0.074,0-0.137,0.016-0.184,0.045c-0.049,0.031-0.074,0.076-0.074,0.139
			s0.025,0.109,0.074,0.143c0.047,0.033,0.148,0.068,0.306,0.107c0.156,0.037,0.273,0.09,0.354,0.16
			c0.078,0.068,0.119,0.168,0.119,0.303s-0.051,0.242-0.15,0.324c-0.102,0.082-0.234,0.125-0.396,0.125
			c-0.238,0-0.451-0.082-0.636-0.248l0.163-0.195c0.155,0.135,0.315,0.203,0.481,0.203c0.082,0,0.148-0.02,0.197-0.055
			s0.074-0.082,0.074-0.143c0-0.059-0.023-0.105-0.07-0.139c-0.047-0.031-0.125-0.061-0.236-0.088
			c-0.111-0.027-0.197-0.053-0.256-0.074c-0.059-0.021-0.111-0.053-0.156-0.088c-0.091-0.068-0.136-0.172-0.136-0.314
			c0-0.141,0.051-0.252,0.155-0.328c0.103-0.076,0.228-0.115,0.382-0.115c0.095,0,0.193,0.018,0.289,0.047
			c0.096,0.033,0.18,0.078,0.25,0.137l-0.139,0.195c-0.045-0.041-0.107-0.074-0.184-0.102S15.104,7.227,15.028,7.227z"/>
		<path fill="#1F2728" d="M16.225,8.553h-0.258V7.025h0.402l0.461,0.961l0.461-0.961h0.4v1.527h-0.258V7.359L16.898,8.42h-0.145
			l-0.531-1.061L16.225,8.553L16.225,8.553z"/>
		<path fill="#1F2728" d="M18.359,8.205l-0.154,0.348h-0.277l0.676-1.527h0.275l0.676,1.527h-0.277l-0.152-0.348H18.359z
			 M19.02,7.967L18.74,7.338l-0.277,0.629H19.02L19.02,7.967z"/>
		<path fill="#1F2728" d="M21.01,7.52c0,0.254-0.111,0.414-0.332,0.477l0.4,0.557H20.75l-0.365-0.514h-0.338v0.514h-0.26V7.025
			h0.568c0.234,0,0.4,0.037,0.5,0.117C20.959,7.223,21.01,7.348,21.01,7.52z M20.666,7.738c0.053-0.045,0.078-0.119,0.078-0.219
			c0-0.098-0.025-0.166-0.082-0.205c-0.053-0.037-0.148-0.055-0.289-0.055h-0.326v0.545h0.32
			C20.514,7.805,20.611,7.783,20.666,7.738z"/>
		<path fill="#1F2728" d="M21.961,7.262v1.291h-0.258V7.262h-0.465V7.025h1.188v0.236H21.961z"/>
		<path fill="#1F2728" d="M23.801,7.025v0.242h-0.816v0.404h0.732v0.23h-0.732v0.408h0.844v0.242h-1.102V7.025H23.801L23.801,7.025z
			"/>
		<path fill="#1F2728" d="M25.402,7.52c0,0.254-0.109,0.414-0.33,0.477l0.4,0.557h-0.328l-0.365-0.514h-0.34v0.514h-0.258V7.025
			h0.568c0.232,0,0.4,0.037,0.5,0.117C25.354,7.223,25.402,7.348,25.402,7.52z M25.059,7.738c0.055-0.045,0.08-0.119,0.08-0.219
			c0-0.098-0.027-0.166-0.082-0.205c-0.055-0.037-0.15-0.055-0.289-0.055h-0.328v0.545h0.322
			C24.906,7.805,25.006,7.783,25.059,7.738z"/>
	</g>
	<g>
		<g>
			<g>
				<path fill="#4388C7" d="M5.271,6.311H1.346c-0.046,0-0.075-0.031-0.075-0.074c0-0.045,0.029-0.074,0.075-0.074h3.926
					c0.045,0,0.073,0.029,0.073,0.074C5.345,6.279,5.315,6.311,5.271,6.311z"/>
			</g>
			<g>
				<path fill="#4388C7" d="M4.397,3.599c-0.059,0-0.117-0.043-0.117-0.116V2.583c0-0.533-0.43-0.963-0.962-0.963
					S2.356,2.051,2.356,2.583v0.899c0,0.058-0.045,0.116-0.118,0.116S2.119,3.556,2.119,3.482V2.583c0-0.65,0.533-1.184,1.184-1.184
					s1.184,0.533,1.184,1.184v0.899C4.501,3.54,4.456,3.599,4.397,3.599z"/>
			</g>
		</g>
	</g>
	<g>
		<path fill="#4388C7" d="M3.906,2.745H2.734c-0.061,0-0.111-0.05-0.111-0.11c0-0.062,0.052-0.11,0.111-0.11h1.172
			c0.061,0,0.11,0.05,0.11,0.111C4.017,2.696,3.966,2.745,3.906,2.745z"/>
	</g>
	<g>
		<path fill="#4388C7" d="M5.404,7.275H1.258c-0.272,0-0.494-0.223-0.494-0.496V3.02c0-0.272,0.223-0.495,0.494-0.495h0.377
			c0.061,0,0.11,0.05,0.11,0.111c0,0.061-0.05,0.109-0.11,0.109H1.258c-0.15,0-0.275,0.123-0.275,0.274v3.76
			c0,0.152,0.123,0.275,0.275,0.275h4.146c0.151,0,0.274-0.123,0.274-0.275V3.02c0-0.151-0.123-0.274-0.274-0.274H4.96
			c-0.061,0-0.109-0.05-0.109-0.11c0-0.062,0.049-0.111,0.109-0.111h0.444c0.273,0,0.495,0.223,0.495,0.495v3.759
			C5.899,7.053,5.678,7.275,5.404,7.275z"/>
	</g>
</g>
</svg>
