<?xml version="1.0" encoding="utf-8"?>
<!-- Generator: Adobe Illustrator 16.0.0, SVG Export Plug-In . SVG Version: 6.00 Build 0)  -->
<!DOCTYPE svg PUBLIC "-//W3C//DTD SVG 1.1//EN" "http://www.w3.org/Graphics/SVG/1.1/DTD/svg11.dtd">
<svg version="1.1" id="Layer_1" xmlns="http://www.w3.org/2000/svg" xmlns:xlink="http://www.w3.org/1999/xlink" x="0px" y="0px"
	 width="30px" height="10px" viewBox="0 0 30 10" enable-background="new 0 0 30 10" xml:space="preserve">
<g>
	<path fill="#1E2728" d="M8.287,1.738c0,0.694-1.051,0.694-1.051,0C7.237,1.045,8.287,1.045,8.287,1.738z M7.316,2.741v3.615h0.892
		V2.741H7.316z"/>
	<path fill="#1E2728" d="M12.459,1.249v5.105h-0.833l-0.059-0.496c-0.277,0.431-0.724,0.576-1.161,0.576
		c-1.06,0-1.856-0.7-1.856-1.885c0-1.24,0.782-1.884,1.834-1.884c0.381,0,0.972,0.204,1.184,0.577V1.249H12.459z M9.442,4.55
		c0,0.629,0.452,1.06,1.022,1.06c0.563,0,1.045-0.408,1.045-1.06c0-0.628-0.482-1.051-1.045-1.051C9.896,3.5,9.442,3.9,9.442,4.55z"
		/>
	<path fill="#1E2728" d="M13.782,4.872c0.058,0.445,0.445,0.766,1.073,0.766c0.328,0,0.76-0.123,0.963-0.336l0.568,0.563
		c-0.379,0.394-1,0.584-1.547,0.584c-1.24,0-1.979-0.766-1.979-1.92c0-1.097,0.744-1.885,1.913-1.885
		c1.203,0,1.957,0.745,1.818,2.228L13.782,4.872L13.782,4.872z M15.738,4.135c-0.059-0.468-0.424-0.701-0.934-0.701
		c-0.481,0-0.877,0.235-1.008,0.701H15.738z"/>
	<path fill="#1E2728" d="M19.842,2.754h0.855v3.6h-0.84l-0.043-0.524c-0.205,0.424-0.768,0.629-1.168,0.635
		c-1.066,0.009-1.857-0.65-1.857-1.914c0-1.24,0.826-1.892,1.877-1.884c0.482,0,0.943,0.227,1.148,0.584L19.842,2.754z M17.682,4.55
		c0,0.688,0.475,1.098,1.066,1.098c1.404,0,1.404-2.186,0-2.186C18.156,3.463,17.682,3.865,17.682,4.55z"/>
	<g>
		<rect x="21.172" y="2.749" fill="#EB2148" width="0.553" height="3.59"/>
		<path fill="#EB2148" d="M21.068,1.572c0,0.251,0.193,0.383,0.385,0.383s0.387-0.131,0.387-0.383
			C21.84,1.068,21.068,1.069,21.068,1.572z"/>
		<path fill="#EB2148" d="M23.99,2.584c-0.486,0.007-0.904,0.186-1.188,0.502V2.764h-0.545v3.573h0.555v-1.99
			c0-0.699,0.49-1.211,1.186-1.217c0.742,0,1.168,0.42,1.168,1.149v2.058h0.553V4.274C25.719,3.246,25.041,2.584,23.99,2.584z"/>
		<path fill="#EB2148" d="M28.752,5.964c0.51-0.316,0.838-0.902,0.838-1.522c0-0.501-0.131-0.893-0.414-1.229l0.359-0.418
			l-0.381-0.333l-0.357,0.419c-0.295-0.187-0.664-0.296-1.006-0.296c-1.07,0-1.789,0.746-1.789,1.857
			c0,1.068,0.752,1.845,1.789,1.845c0.613,0,1.27,0.259,1.27,0.982c0,0.92-0.971,0.991-1.27,0.991c-0.607,0-1.252-0.259-1.252-0.991
			V7.171h-0.555v0.097c0,0.921,0.727,1.538,1.807,1.538c1.119,0,1.814-0.589,1.814-1.538C29.605,6.684,29.303,6.226,28.752,5.964z
			 M27.791,3.137c0.762,0,1.254,0.514,1.254,1.305c0,0.699-0.574,1.291-1.254,1.291c-0.813,0-1.236-0.65-1.236-1.291
			C26.551,3.479,27.191,3.137,27.791,3.137z"/>
	</g>
	<rect x="25.984" y="7.027" fill="#EB2148" width="0.555" height="0.144"/>
	<g>
		<path fill="#1F2728" d="M7.823,7.233c-0.076,0-0.137,0.016-0.185,0.047C7.59,7.31,7.565,7.356,7.565,7.42
			c0,0.061,0.023,0.109,0.072,0.143c0.048,0.032,0.151,0.068,0.308,0.105c0.156,0.038,0.276,0.091,0.356,0.161
			C8.382,7.898,8.422,8,8.422,8.133c0,0.135-0.051,0.242-0.151,0.326C8.169,8.542,8.037,8.584,7.873,8.584
			c-0.24,0-0.452-0.082-0.638-0.249l0.161-0.194c0.156,0.136,0.316,0.2,0.482,0.2c0.084,0,0.149-0.017,0.199-0.053
			c0.05-0.035,0.073-0.084,0.073-0.143c0-0.06-0.022-0.105-0.069-0.138C8.036,7.975,7.957,7.944,7.845,7.917
			S7.646,7.866,7.588,7.844C7.529,7.82,7.478,7.791,7.433,7.755C7.342,7.686,7.296,7.58,7.296,7.438
			c0-0.144,0.052-0.251,0.154-0.329c0.104-0.076,0.231-0.114,0.383-0.114c0.099,0,0.195,0.016,0.293,0.047
			c0.096,0.033,0.18,0.078,0.249,0.137L8.237,7.375C8.191,7.333,8.13,7.299,8.054,7.274C7.976,7.246,7.898,7.233,7.823,7.233z"/>
		<path fill="#1F2728" d="M8.767,8.567V7.031h0.259v0.667h0.762V7.031h0.259v1.536H9.787V7.938H9.025v0.629H8.767z"/>
		<path fill="#1F2728" d="M11.78,8.354c-0.155,0.152-0.347,0.229-0.575,0.229c-0.229,0-0.421-0.076-0.574-0.229
			c-0.155-0.152-0.232-0.339-0.232-0.564c0-0.227,0.077-0.416,0.232-0.567c0.153-0.151,0.346-0.227,0.574-0.227
			c0.228,0,0.42,0.074,0.575,0.227c0.156,0.152,0.232,0.341,0.232,0.567C12.013,8.015,11.936,8.202,11.78,8.354z M11.59,7.395
			c-0.104-0.108-0.232-0.163-0.385-0.163s-0.281,0.057-0.385,0.163c-0.104,0.107-0.157,0.24-0.157,0.395
			c0,0.153,0.052,0.284,0.157,0.394c0.105,0.108,0.233,0.163,0.385,0.163c0.152,0,0.281-0.056,0.385-0.163
			c0.105-0.109,0.157-0.24,0.157-0.394C11.747,7.635,11.695,7.502,11.59,7.395z"/>
		<path fill="#1F2728" d="M13.4,7.166c0.106,0.089,0.16,0.226,0.16,0.412c0,0.188-0.056,0.322-0.163,0.409
			c-0.109,0.086-0.276,0.128-0.501,0.128h-0.272v0.452h-0.259V7.031h0.526C13.123,7.031,13.294,7.075,13.4,7.166z M13.217,7.799
			c0.052-0.055,0.078-0.135,0.078-0.242c0-0.105-0.033-0.18-0.099-0.224s-0.17-0.065-0.31-0.065h-0.264v0.614h0.3
			C13.066,7.882,13.164,7.854,13.217,7.799z"/>
		<path fill="#1F2728" d="M14.979,7.233c-0.075,0-0.137,0.016-0.186,0.047c-0.048,0.029-0.073,0.076-0.073,0.14
			c0,0.061,0.024,0.109,0.073,0.143c0.049,0.032,0.15,0.068,0.309,0.105c0.157,0.038,0.276,0.091,0.354,0.161
			c0.08,0.069,0.119,0.171,0.119,0.304c0,0.135-0.051,0.242-0.152,0.326c-0.1,0.083-0.23,0.125-0.395,0.125
			c-0.24,0-0.453-0.082-0.639-0.249l0.162-0.194c0.155,0.136,0.315,0.2,0.482,0.2c0.084,0,0.15-0.017,0.199-0.053
			c0.049-0.035,0.072-0.084,0.072-0.143c0-0.06-0.021-0.105-0.067-0.138c-0.046-0.033-0.126-0.063-0.238-0.091
			s-0.198-0.051-0.257-0.073c-0.059-0.023-0.11-0.053-0.155-0.089c-0.092-0.069-0.137-0.175-0.137-0.316
			c0-0.144,0.053-0.251,0.155-0.329c0.104-0.076,0.231-0.114,0.383-0.114c0.099,0,0.195,0.016,0.293,0.047
			c0.096,0.033,0.178,0.078,0.246,0.137l-0.137,0.197c-0.047-0.042-0.107-0.075-0.184-0.102C15.132,7.246,15.054,7.233,14.979,7.233
			z"/>
		<path fill="#1F2728" d="M16.182,8.567h-0.26V7.031h0.404l0.463,0.964l0.463-0.964h0.402v1.536h-0.26v-1.2l-0.535,1.063h-0.145
			l-0.533-1.063V8.567L16.182,8.567z"/>
		<path fill="#1F2728" d="M18.318,8.217l-0.152,0.351h-0.277l0.678-1.536h0.275l0.678,1.536H19.24l-0.154-0.351H18.318z
			 M18.982,7.979l-0.279-0.633l-0.277,0.633H18.982z"/>
		<path fill="#1F2728" d="M20.98,7.531c0,0.253-0.111,0.411-0.332,0.477l0.402,0.56h-0.33L20.354,8.05h-0.338v0.518h-0.26V7.031
			h0.568c0.234,0,0.404,0.04,0.504,0.118C20.93,7.229,20.98,7.356,20.98,7.531z M20.637,7.749c0.053-0.047,0.078-0.118,0.078-0.22
			c0-0.1-0.027-0.169-0.082-0.207c-0.055-0.036-0.15-0.055-0.289-0.055h-0.328v0.549h0.322C20.484,7.816,20.584,7.793,20.637,7.749z
			"/>
		<path fill="#1F2728" d="M21.936,7.27v1.298h-0.26V7.27h-0.465V7.031h1.191V7.27H21.936z"/>
		<path fill="#1F2728" d="M23.783,7.031v0.245h-0.818v0.404h0.734v0.23h-0.734v0.412h0.844v0.246h-1.104V7.031H23.783L23.783,7.031z
			"/>
		<path fill="#1F2728" d="M25.391,7.531c0,0.253-0.111,0.411-0.332,0.477l0.4,0.56h-0.328L24.764,8.05h-0.34v0.518h-0.26V7.031
			h0.572c0.232,0,0.4,0.04,0.502,0.118C25.338,7.229,25.391,7.356,25.391,7.531z M25.045,7.749c0.053-0.047,0.08-0.118,0.08-0.22
			c0-0.1-0.027-0.169-0.082-0.207c-0.053-0.034-0.152-0.055-0.291-0.055h-0.328v0.549h0.322C24.895,7.816,24.992,7.793,25.045,7.749
			z"/>
	</g>
	<g>
		<g>
			<g>
				<path fill="#EB2148" d="M5.23,6.314H1.29c-0.044,0-0.074-0.03-0.074-0.074s0.03-0.073,0.074-0.073h3.94
					c0.044,0,0.073,0.029,0.073,0.073S5.274,6.314,5.23,6.314z"/>
			</g>
			<g>
				<path fill="#EB2148" d="M4.354,3.595c-0.06,0-0.119-0.045-0.119-0.119V2.573c0-0.534-0.43-0.965-0.965-0.965
					c-0.534,0-0.965,0.43-0.965,0.965v0.901c0,0.06-0.045,0.119-0.119,0.119S2.068,3.549,2.068,3.475V2.573
					c0-0.652,0.534-1.188,1.188-1.188c0.652,0,1.188,0.535,1.188,1.188v0.901C4.457,3.534,4.413,3.595,4.354,3.595z"/>
			</g>
		</g>
	</g>
	<g>
		<path fill="#EB2148" d="M3.86,2.736H2.685c-0.061,0-0.109-0.051-0.109-0.111c0-0.062,0.049-0.111,0.109-0.111H3.86
			c0.06,0,0.109,0.05,0.109,0.111C3.97,2.686,3.92,2.736,3.86,2.736z"/>
	</g>
	<g>
		<path fill="#EB2148" d="M5.364,7.282h-4.16c-0.274,0-0.497-0.222-0.497-0.495V3.013c0-0.273,0.224-0.497,0.497-0.497h0.377
			c0.062,0,0.111,0.049,0.111,0.11c0,0.061-0.05,0.111-0.111,0.111H1.204c-0.152,0-0.276,0.123-0.276,0.276v3.775
			c0,0.151,0.124,0.276,0.276,0.276h4.16c0.152,0,0.276-0.125,0.276-0.276V3.013c0-0.153-0.124-0.276-0.276-0.276H4.919
			c-0.062,0-0.11-0.051-0.11-0.111c0-0.062,0.049-0.111,0.11-0.111h0.445c0.274,0,0.497,0.224,0.497,0.498v3.775
			C5.861,7.061,5.639,7.282,5.364,7.282z"/>
	</g>
</g>
</svg>
